<?xml version="1.0" encoding="UTF-8"?>
<!DOCTYPE svg PUBLIC "-//W3C//DTD SVG 1.1//EN" "http://www.w3.org/Graphics/SVG/1.1/DTD/svg11.dtd">
<!-- Creator: CorelDRAW -->
<svg xmlns="http://www.w3.org/2000/svg" xml:space="preserve" width="168px" height="40px" version="1.1" style="shape-rendering:geometricPrecision; text-rendering:geometricPrecision; image-rendering:optimizeQuality; fill-rule:evenodd; clip-rule:evenodd"
viewBox="0 0 168 40"
 xmlns:xlink="http://www.w3.org/1999/xlink"
 xmlns:xodm="http://www.corel.com/coreldraw/odm/2003">
 <defs>
  <style type="text/css">
   <![CDATA[
    .fil1 {fill:#2D8BCB}
    .fil0 {fill:black;fill-rule:nonzero}
   ]]>
  </style>
 </defs>
 <g id="Layer_x0020_1">
  <metadata id="CorelCorpID_0Corel-Layer"/>
  <path class="fil0" d="M78.53 5.91l0 32.4 -5.31 0 0 -14.17 -15.25 0 0 14.17 -5.31 0 0 -32.4 5.31 0 0 13.89 15.25 0 0 -13.89 5.31 0zm23.83 32.4l-7.46 -12.96 -4.06 0 0 12.96 -5.31 0 0 -32.4 11.19 0c2.49,0 4.59,0.43 6.32,1.3 1.72,0.87 3.01,2.04 3.87,3.5 0.85,1.46 1.28,3.09 1.28,4.89 0,2.12 -0.61,4.04 -1.84,5.76 -1.23,1.73 -3.12,2.9 -5.67,3.52l8.02 13.43 -6.34 0 0 0zm-11.52 -17.2l5.88 0c1.99,0 3.49,-0.5 4.5,-1.5 1.01,-0.99 1.51,-2.33 1.51,-4.01 0,-1.67 -0.49,-2.99 -1.49,-3.94 -0.99,-0.94 -2.5,-1.42 -4.52,-1.42l-5.88 0 0 10.86 0 0.01zm35.3 17.62c-2.43,0 -4.62,-0.55 -6.58,-1.65 -1.95,-1.11 -3.49,-2.66 -4.61,-4.67 -1.12,-2 -1.68,-4.33 -1.68,-6.97 0,-2.61 0.57,-4.92 1.72,-6.94 1.15,-2.02 2.72,-3.58 4.71,-4.67 1.99,-1.08 4.22,-1.63 6.67,-1.63 2.46,0 4.68,0.55 6.67,1.63 1.99,1.09 3.56,2.65 4.71,4.67 1.15,2.01 1.72,4.33 1.72,6.94 0,2.61 -0.59,4.93 -1.77,6.95 -1.18,2.02 -2.79,3.58 -4.82,4.69 -2.04,1.1 -4.29,1.65 -6.74,1.65l0 0zm0 -4.62c1.37,0 2.65,-0.32 3.84,-0.97 1.2,-0.66 2.17,-1.64 2.92,-2.94 0.74,-1.31 1.12,-2.89 1.12,-4.76 0,-1.86 -0.36,-3.44 -1.08,-4.73 -0.71,-1.29 -1.66,-2.26 -2.84,-2.91 -1.18,-0.66 -2.46,-0.98 -3.82,-0.98 -1.37,0 -2.64,0.32 -3.8,0.98 -1.17,0.65 -2.09,1.62 -2.78,2.91 -0.68,1.29 -1.02,2.87 -1.02,4.73 0,2.77 0.71,4.91 2.12,6.41 1.42,1.51 3.19,2.26 5.34,2.26l0 0zm29.28 4.53c-2.18,0 -4.14,-0.38 -5.88,-1.15 -1.74,-0.76 -3.1,-1.84 -4.1,-3.24 -0.99,-1.4 -1.49,-3.03 -1.49,-4.89l5.69 0c0.12,1.4 0.67,2.55 1.65,3.45 0.98,0.9 2.36,1.35 4.13,1.35 1.83,0 3.26,-0.44 4.29,-1.33 1.02,-0.88 1.54,-2.03 1.54,-3.43 0,-1.08 -0.32,-1.97 -0.96,-2.65 -0.64,-0.69 -1.43,-1.22 -2.38,-1.59 -0.95,-0.37 -2.26,-0.78 -3.94,-1.21 -2.11,-0.56 -3.83,-1.13 -5.15,-1.7 -1.32,-0.58 -2.45,-1.47 -3.38,-2.68 -0.93,-1.22 -1.4,-2.83 -1.4,-4.85 0,-1.87 0.47,-3.5 1.4,-4.9 0.93,-1.4 2.24,-2.47 3.92,-3.22 1.68,-0.74 3.62,-1.11 5.82,-1.11 3.14,0 5.72,0.78 7.72,2.35 2.01,1.57 3.12,3.72 3.34,6.46l-5.88 0c-0.09,-1.18 -0.65,-2.19 -1.68,-3.03 -1.02,-0.84 -2.38,-1.26 -4.05,-1.26 -1.53,0 -2.77,0.39 -3.73,1.16 -0.97,0.78 -1.45,1.9 -1.45,3.36 0,0.99 0.3,1.81 0.91,2.45 0.6,0.63 1.37,1.14 2.31,1.51 0.93,0.37 2.2,0.78 3.82,1.21 2.14,0.6 3.89,1.18 5.25,1.78 1.35,0.59 2.5,1.5 3.45,2.72 0.94,1.23 1.42,2.87 1.42,4.92 0,1.65 -0.45,3.2 -1.33,4.66 -0.89,1.47 -2.18,2.64 -3.87,3.53 -1.69,0.88 -3.69,1.32 -5.99,1.32l0 0.01z"/>
  <path class="fil1" d="M1.39 15.79l3.11 0.01c0.05,0.78 0,1.71 0,2.51 0,2.5 -0.04,17.41 0.02,17.48 0,0 0.01,0 0.01,0 0.01,0.01 0.02,0.01 0.02,0 0.1,0 2.19,-1.24 2.34,-1.33 0.13,-0.08 0.26,-0.15 0.4,-0.23 0.09,-0.06 0.32,-0.17 0.39,-0.25l0.01 -18.17c0.2,-0.17 0.72,-0.43 0.97,-0.57 0.33,-0.18 0.67,-0.38 0.97,-0.57 0.16,-0.1 0.35,-0.18 0.5,-0.28 0.08,-0.04 0.15,-0.09 0.23,-0.14l1.74 -1c0.17,-0.11 0.32,-0.19 0.49,-0.28 0.34,-0.2 0.64,-0.39 0.97,-0.57 0.34,-0.18 0.64,-0.39 0.98,-0.57l1.5 -0.85c0.48,-0.3 0.98,-0.54 1.45,-0.85 0.16,-0.11 0.35,-0.2 0.49,-0.28l1.48 -0.86c0.5,-0.26 0.97,-0.58 1.47,-0.85 0.4,-0.22 2.36,-1.41 2.49,-1.42 0.1,-0.01 1.74,0.99 1.95,1.11l1.98 1.14c0.5,0.27 0.96,0.59 1.46,0.85 0.51,0.26 0.98,0.57 1.47,0.85 0.18,0.1 0.31,0.17 0.49,0.28 0.78,0.48 1.69,0.92 2.46,1.42 0.61,0.39 1.33,0.76 1.97,1.14 0.35,0.21 0.67,0.39 0.98,0.57l0.99 0.57c0.35,0.23 1.09,0.61 1.48,0.85 0.16,0.09 0.33,0.19 0.5,0.29l0.01 3.69c-0.21,0.11 -0.38,0.2 -0.58,0.32 -0.79,0.44 -1.55,0.94 -2.33,1.34 -0.41,0.22 -0.78,0.46 -1.17,0.68l-5.13 2.97c-0.07,0.03 -0.11,0.04 -0.13,0.11 0.06,0.07 1.02,0.6 1.16,0.68 1.07,0.62 2.12,1.19 3.18,1.85l2.64 1.51c0.39,0.26 0.74,0.41 1.16,0.68 0.34,0.22 0.79,0.45 1.19,0.67 0.05,1.08 0.01,2.35 0.01,3.45l0 0.26c0.25,0.15 0.54,0.3 0.78,0.44l1.57 0.91c0.15,0.1 0.66,0.43 0.82,0.44l0 -7.16c0,-0.26 -0.02,-0.21 -0.27,-0.35 -0.92,-0.52 -1.8,-1.07 -2.73,-1.57 -0.26,-0.14 -0.49,-0.3 -0.78,-0.45 -0.55,-0.3 -1.01,-0.62 -1.56,-0.91 -0.18,-0.1 -0.72,-0.4 -0.77,-0.48 0.09,-0.08 0.23,-0.14 0.35,-0.22 0.06,-0.03 0.12,-0.06 0.19,-0.1l0.98 -0.57c0.24,-0.14 0.5,-0.28 0.76,-0.43l1.53 -0.89c0.31,-0.18 2.18,-1.23 2.31,-1.35l0 -5.52c1.04,-0.02 2.08,0 3.11,0 -0.14,-0.1 0,-0.04 -0.3,-0.2l-2.75 -1.59c-0.12,-0.08 -0.22,-0.15 -0.34,-0.22 -0.12,-0.06 -0.23,-0.12 -0.34,-0.19 -0.1,-0.05 -0.25,-0.13 -0.36,-0.2 -0.39,-0.26 -0.96,-0.55 -1.38,-0.8 -0.77,-0.47 -2.04,-1.14 -2.74,-1.6l-0.69 -0.39c-0.22,-0.13 -0.46,-0.27 -0.69,-0.4 -0.46,-0.27 -0.92,-0.53 -1.38,-0.8 -0.9,-0.52 -1.78,-1.03 -2.75,-1.59l-2.08 -1.2c-0.25,-0.14 -0.44,-0.27 -0.69,-0.4l-3.09 -1.78c-0.11,-0.07 -0.22,-0.14 -0.34,-0.21 -0.25,-0.14 -0.45,-0.26 -0.7,-0.4 -0.21,-0.11 -1.29,-0.78 -1.39,-0.79 -0.1,-0.01 -0.58,0.3 -0.7,0.37l-3.5 2.01c-0.07,0.04 0,-0.01 -0.04,0.03 -0.22,0.17 -1.09,0.65 -1.3,0.76 -0.11,0.06 -0.22,0.12 -0.33,0.19l-1.03 0.6c-0.23,0.14 -0.49,0.27 -0.69,0.4 -0.79,0.48 -1.63,0.93 -2.41,1.39l-3.79 2.2c-0.47,0.27 -0.91,0.54 -1.39,0.8 -0.47,0.25 -0.93,0.57 -1.38,0.8 -0.24,0.12 -0.45,0.25 -0.69,0.4l-1.71 0.99c-0.38,0.26 -3.01,1.69 -3.08,1.82l-0.01 0.01 0 0 0 -0.01zm9.45 1.88l0 14.21c0,0.16 -0.04,0.29 0.06,0.37l-0.01 0.03c-0.01,0 0.05,-0.02 0.12,-0.01 0.1,0.02 0.21,0.12 0.31,0.17l1.17 0.67c1.03,0.63 2.05,1.15 3.1,1.8l2.34 1.35c0.28,0.16 0.52,0.29 0.78,0.45l1.57 0.91c0.55,0.31 0.98,0.58 1.55,0.89l1.58 0.91c0.07,0 3.64,-2.07 3.94,-2.25 0.23,-0.15 0.52,-0.32 0.78,-0.46 0.57,-0.31 1.04,-0.62 1.57,-0.91 0.26,-0.13 0.54,-0.3 0.78,-0.45 0.26,-0.16 0.52,-0.29 0.79,-0.45 0.49,-0.29 1.07,-0.64 1.56,-0.91 0.27,-0.15 0.53,-0.29 0.78,-0.45 0.53,-0.34 1.03,-0.57 1.57,-0.91 0.18,-0.11 0.67,-0.34 0.78,-0.46 -0.03,-0.07 -0.07,-0.09 -0.15,-0.13 -0.07,-0.04 -0.14,-0.07 -0.21,-0.12 -0.35,-0.21 -0.7,-0.39 -1.04,-0.61 0,0 -0.04,-0.03 -0.05,-0.03 -0.04,-0.03 -0.05,-0.03 -0.1,-0.05 -0.26,-0.12 -0.56,-0.31 -0.8,-0.46 -0.15,-0.09 -0.68,-0.41 -0.81,-0.45 -0.1,0 -2.11,1.21 -2.36,1.35l-1.17 0.67c-0.97,0.57 -1.97,1.1 -2.93,1.7 -0.45,0.27 -2.84,1.68 -2.93,1.68 -0.05,-0.01 -4.29,-2.49 -4.68,-2.7l-0.58 -0.34c-0.98,-0.59 -1.92,-1.11 -2.93,-1.69l-0.86 -0.51c-0.1,-0.05 -0.22,-0.1 -0.31,-0.17l-0.01 -10.83c0.11,-0.07 0.24,-0.13 0.34,-0.19 0.11,-0.06 0.21,-0.13 0.34,-0.2l2.72 -1.58c0.22,-0.13 0.48,-0.27 0.69,-0.4 0.32,-0.2 0.68,-0.38 1.02,-0.58l1.36 -0.8c0.33,-0.19 0.69,-0.42 1.03,-0.59l1.7 -0.98c0.24,-0.15 0.4,0.01 0.72,0.22 0.13,0.08 0.22,0.12 0.34,0.19l4.1 2.37c0.23,0.12 0.43,0.26 0.69,0.4 0.68,0.36 1.36,0.81 2.03,1.18l1.37 0.79c0.1,0.05 0.24,0.18 0.37,0.13l2.75 -1.59c0.11,-0.06 0.25,-0.15 0.36,-0.2 -0.05,-0.09 -0.06,-0.07 -0.17,-0.14 -0.08,-0.04 -0.13,-0.08 -0.2,-0.11 -0.13,-0.08 -0.25,-0.15 -0.38,-0.23l-1.97 -1.13c-0.1,-0.06 -0.28,-0.18 -0.39,-0.23 -0.3,-0.15 -0.5,-0.28 -0.78,-0.45 -0.28,-0.17 -0.52,-0.29 -0.8,-0.46 -0.52,-0.3 -1.09,-0.62 -1.58,-0.91 -1,-0.6 -2.13,-1.21 -3.13,-1.82 -0.52,-0.31 -1.05,-0.59 -1.57,-0.9l-0.8 -0.46c-1.02,-0.59 -0.53,-0.53 -1.61,0.02 -0.65,0.33 -1.3,0.77 -1.96,1.13 -0.15,0.08 -0.23,0.14 -0.39,0.23 -0.76,0.45 -1.61,0.91 -2.36,1.37 -0.25,0.15 -0.54,0.28 -0.79,0.46 -0.11,0.07 -0.27,0.13 -0.39,0.22 -0.13,0.08 -0.27,0.16 -0.39,0.22 -0.13,0.08 -0.25,0.15 -0.39,0.23 -0.67,0.35 -1.32,0.8 -1.98,1.13 -0.42,0.21 -1.12,0.67 -1.56,0.92 -0.27,0.14 -0.52,0.32 -0.79,0.45l-0.71 0.39c-0.03,0.04 -0.03,0.03 -0.05,0.09l0.01 0 0 0 0 0zm6.43 3.68l0 6.91c0,0.25 0.08,0.23 0.25,0.33l1.16 0.67c0.36,0.21 1,0.55 1.34,0.77 0.07,0.04 0.11,0.08 0.19,0.12 0.34,0.19 2.29,1.29 2.7,1.55 0.65,0.42 0.48,0.28 1.2,-0.11 0.71,-0.36 1.56,-0.93 2.33,-1.34 0.68,-0.36 1.65,-0.99 2.3,-1.34 0.09,-0.04 0.69,-0.38 0.77,-0.46 -0.06,-0.12 -0.94,-0.58 -1.13,-0.69 -0.39,-0.24 -0.72,-0.41 -1.14,-0.67 -0.09,-0.05 -0.2,-0.11 -0.29,-0.16 -0.67,-0.38 -0.49,-0.39 -0.88,-0.16 -0.49,0.3 -1.24,0.69 -1.72,0.99l-0.86 0.5c-0.12,0.05 -0.21,-0.04 -0.31,-0.1 -0.73,-0.41 -1.56,-0.93 -2.29,-1.32 -0.45,-0.25 -0.42,-0.2 -0.42,-0.47l0 -3.16 1.45 -0.86c0.23,-0.12 1.38,-0.83 1.49,-0.83 0.11,0 0.92,0.5 1.13,0.62 0.13,0.07 0.22,0.14 0.37,0.21 0.22,0.12 0.48,0.26 0.72,0.42 0.14,0.08 0.64,0.39 0.76,0.41 0.22,-0.11 0.55,-0.3 0.76,-0.44 0.26,-0.15 0.52,-0.3 0.8,-0.45 0.28,-0.17 0.5,-0.29 0.79,-0.46 0.13,-0.07 0.26,-0.15 0.39,-0.22 0.07,-0.04 0.13,-0.08 0.2,-0.12 0.1,-0.07 0.14,-0.05 0.19,-0.14 -0.06,-0.09 0,-0.02 -0.08,-0.07 -0.03,-0.03 -0.06,-0.04 -0.1,-0.06l-0.57 -0.34c-0.25,-0.13 -0.5,-0.29 -0.76,-0.43l-0.77 -0.44c-0.25,-0.16 -0.51,-0.29 -0.77,-0.45l-2.27 -1.31c-0.15,-0.09 -0.69,-0.44 -0.81,-0.42l-5.73 3.3c-0.13,0.09 -0.25,0.13 -0.38,0.23l-0.01 -0.01 0 0 0 0z"/>
  <path class="fil1" d="M119.13 9.92c0.24,-0.17 0.45,-0.37 0.69,-0.54l1.12 -0.85c0.37,-0.3 0.74,-0.54 1.1,-0.85 0.12,-0.11 0.26,-0.2 0.36,-0.29l1.12 -0.85c0.37,-0.26 0.72,-0.58 1.09,-0.85 0.3,-0.22 1.77,-1.41 1.87,-1.42 0.08,-0.01 1.31,0.99 1.46,1.11l1.48 1.14c0.38,0.27 0.73,0.59 1.1,0.85 0.38,0.26 0.73,0.57 1.1,0.85 0.14,0.1 0.24,0.17 0.37,0.28 0.59,0.48 1.27,0.92 1.84,1.42l4.79 0c-0.57,-0.44 -1.33,-0.98 -1.78,-1.38l-0.52 -0.4c-0.16,-0.12 -0.34,-0.26 -0.52,-0.39 -0.34,-0.27 -0.68,-0.53 -1.03,-0.81 -0.67,-0.51 -1.33,-1.02 -2.06,-1.58l-1.56 -1.2c-0.19,-0.14 -0.33,-0.27 -0.51,-0.4l-2.32 -1.78c-0.09,-0.07 -0.17,-0.14 -0.26,-0.21 -0.18,-0.14 -0.33,-0.27 -0.52,-0.4 -0.16,-0.11 -0.97,-0.78 -1.05,-0.79 -0.07,-0.01 -0.43,0.3 -0.52,0.37l-2.62 2.01c-0.05,0.04 0,-0.01 -0.04,0.03 -0.16,0.16 -0.81,0.65 -0.96,0.76 -0.09,0.06 -0.17,0.12 -0.26,0.19l-0.77 0.6c-0.17,0.14 -0.36,0.27 -0.52,0.4 -0.59,0.48 -1.21,0.93 -1.8,1.39l-2.85 2.2c-0.35,0.27 -0.68,0.54 -1.03,0.79 -0.26,0.19 -0.51,0.41 -0.76,0.6l4.77 0 0 0 0 0z"/>
  <ellipse class="fil1" cx="126.31" cy="25.55" rx="3.88" ry="4.48"/>
 </g>
</svg>
